# AST/ASF file generated using VICON BodyLanguage
# -----------------------------------------------
:version 1.10
:name VICON
:units
  mass 1.0
  length 0.45
  angle deg
:documentation
   .ast/.asf automatically generated from VICON data using
   VICON BodyBuilder and BodyLanguage model FoxedUp or BRILLIANT.MOD
:root
   order TX TY TZ RX RY RZ
   axis XYZ
   position 0 0 0  
   orientation 0 0 0 
:bonedata
  begin
     id 1 
     name lhipjoint
     direction 0.611804 -0.747784 0.257906 
     length 2.29243 
     axis 0 0 0  XYZ
  end
  begin
     id 2 
     name lfemur
     direction 0.34202 -0.939693 0  
     length 7.31159  
     axis 0 0 20  XYZ
    dof rx ry rz
    limits (-160.0 20.0)
           (-70.0 70.0)
           (-60.0 70.0)
  end
  begin
     id 3 
     name ltibia
     direction 0.34202 -0.939693 0   
     length 7.33391   
     axis 0 0 20   XYZ
    dof rx
    limits (-10.0 170.0)
  end
  begin
     id 4 
     name lfoot
     direction 0.122263 -0.335914 0.933924   
     length 1.76083   
     axis -90 7.62852e-016 20   XYZ
    dof rx rz
    limits (-45.0 90.0)
           (-70.0 20.0)
  end
  begin
     id 5 
     name ltoes
     direction 1.53533e-011 -4.2177e-011 1   
     length 0.879206   
     axis -90 7.62852e-016 20   XYZ
    dof rx
    limits (-90.0 20.0)
  end
  begin
     id 6 
     name rhipjoint
     direction -0.646469 -0.721248 0.248754   
     length 2.37677  
     axis 0 0 0  XYZ 
  end
  begin
     id 7 
     name rfemur
     direction -0.34202 -0.939693 0   
     length 7.18623   
     axis 0 0 -20   XYZ
    dof rx ry rz
    limits (-160.0 20.0)
           (-70.0 70.0)
           (-70.0 60.0)
  end
  begin
     id 8 
     name rtibia
     direction -0.34202 -0.939693 0   
     length 7.36567   
     axis 0 0 -20   XYZ
    dof rx
    limits (-10.0 170.0)
 end
 begin
     id 9 
     name rfoot
     direction -0.126681 -0.348054 0.928876   
     length 1.71902  
     axis -90 -7.62852e-016 -20   XYZ
    dof rx rz
    limits (-45.0 90.0)
           (-20.0 70.0)
  end
  begin
     id 10 
     name rtoes
     direction -1.53551e-011 -4.21898e-011 1   
     length 0.857792   
     axis -90 -7.62852e-016 -20   XYZ
    dof rx
    limits (-90.0 20.0)
  end
  begin
     id 11 
     name lowerback
     direction 0.0106509 0.999778 0.0181844   
     length 2.07668   
     axis 0 0 0   XYZ
    dof rx ry rz
    limits (-20.0 45.0)
           (-30.0 30.0)
           (-30.0 30.0)
  end
  begin
     id 12 
     name upperback
     direction -0.00456018 0.999989 -0.000590935   
     length 2.08011   
     axis 0 0 0   XYZ
    dof rx ry rz
    limits (-20.0 45.0)
           (-30.0 30.0)
           (-30.0 30.0)
  end
  begin
     id 13 
     name thorax
     direction -0.00910382 0.999916 -0.00923765   
     length 2.07397   
     axis 0 0 0   XYZ
    dof rx ry rz
    limits (-20.0 45.0)
           (-30.0 30.0)
           (-30.0 30.0)
  end
  begin
     id 14 
     name lowerneck
     direction 0.00171967 0.99778 0.0665733   
     length 1.67556   
     axis 0 0 0   XYZ
    dof rx ry rz
    limits (-20.0 45.0)
           (-30.0 30.0)
           (-30.0 30.0)
  end
  begin
     id 15 
     name upperneck
     direction -0.0143166 0.991302 -0.130828   
     length 1.68462   
     axis 0 0 0   XYZ
    dof rx ry rz
    limits (-20.0 45.0)
           (-30.0 30.0)
           (-30.0 30.0)
  end
  begin
     id 16
     name head
     direction -0.00606378 0.998665 -0.0512995  
     length 1.69269  
     axis 0 0 0   XYZ
    dof rx ry rz
    limits (-20.0 45.0)
           (-30.0 30.0)
           (-30.0 30.0)
  end
  begin
     id 17 
     name lclavicle
     direction 0.9638 0.179341 0.197297  
     length 4.12888  
     axis 0 0 0   XYZ
    dof ry rz
    limits (-20.0 10.0)
           (0.0 20.0)
  end
  begin
     id 18 
     name lhumerus
     direction 1 -4.48972e-011 -2.47351e-027   
     length 5.01834   
     axis -180 -30 -90   XYZ
    dof rx ry rz
    limits (-60.0 90.0)
           (-90.0 90.0)
           (-90.0 90.0)
  end
  begin
     id 19
     name lradius
     direction 1 -4.48965e-011 1.51591e-026   
     length 3.4869   
     axis -180 -30 -90   XYZ
    dof rx
    limits (-10.0 170.0)
  end
  begin
     id 20
     name lwrist
     direction 1 -4.48957e-011 2.70032e-026   
     length 1.74345   
     axis -1.81515e-014 90 90   XYZ
    dof ry
    limits (-180.0 0.0)
 end
  begin
     id 21 
     name lhand
     direction 1 -4.48951e-011 5.40064e-026   
     length 0.76799   
     axis -3.44607e-014 90 90   XYZ
    dof rx rz
    limits (-90.0 90.0)
           (-45.0 45.0)
  end
  begin
     id 22 
     name lfingers
     direction 1 -4.48971e-011 1.08013e-025   
     length 0.619174   
     axis -6.89214e-014 90 90   XYZ
    dof rx
    limits (0.0 90.0)
  end
  begin
     id 23
     name lthumb
     direction 0.707107 -6.34931e-011 0.707107   
     length 0.889013   
     axis -90 45 2.85299e-015   XYZ
    dof rx rz
    limits (-45.0 45.0)
           (-45.0 45.0)
  end
  begin
     id 24 
     name rclavicle
     direction -0.961409 0.252588 0.109054   
     length 4.04305  
     axis 0 0 0   XYZ 
    dof ry rz
    limits (-10.0 20.0)
           (-20.0 0.0)
  end
  begin
     id 25 
     name rhumerus
     direction -1 -4.4897e-011 1.33872e-017  
     length 4.70164   
     axis -180 30 90   XYZ
    dof rx ry rz
    limits (-90.0 60.0)
           (-90.0 90.0)
           (-90.0 90.0)
  end
  begin
     id 26 
     name rradius
     direction -1 -4.48954e-011 1.83844e-026   
     length 3.49911   
     axis -180 30 90   XYZ
    dof rx
    limits (-10.0 170.0)
  end
  begin
     id 27 
     name rwrist
     direction -1 -4.49008e-011 2.70032e-026   
     length 1.74955   
     axis -1.81515e-014 -90 -90   XYZ
    dof ry
    limits (-180.0 0.0)
  end
  begin
     id 28
     name rhand
     direction -1 -4.48916e-011 5.40064e-026   
     length 0.739335   
     axis -3.44607e-014 -90 -90   XYZ
    dof rx rz
    limits (-90.0 90.0)
           (-45.0 45.0)
  end
  begin
     id 29
     name rfingers
     direction -1 -4.48987e-011 1.08013e-025   
     length 0.596071   
     axis -6.89214e-014 -90 -90   XYZ
    dof rx
    limits (0.0 90.0)
  end
  begin
     id 30
     name rthumb
     direction -0.707107 -6.34935e-011 0.707107   
     length 0.855843   
     axis -90 -45 -2.85299e-015   XYZ
    dof rx rz
    limits (-45.0 45.0)
           (-45.0 45.0)
  end
:hierarchy
  begin
    root lhipjoint rhipjoint lowerback
    lhipjoint lfemur
    lfemur ltibia
    ltibia lfoot
    lfoot ltoes
    rhipjoint rfemur
    rfemur rtibia
    rtibia rfoot
    rfoot rtoes
    lowerback upperback
    upperback thorax
    thorax lowerneck lclavicle rclavicle
    lowerneck upperneck
    upperneck head
    lclavicle lhumerus
    lhumerus lradius
    lradius lwrist
    lwrist lhand lthumb
    lhand lfingers
    rclavicle rhumerus
    rhumerus rradius
    rradius rwrist
    rwrist rhand rthumb
    rhand rfingers
  end

#!OML:ASF I:\salsa\salsa 7_09\Patient 1\Session 1\dancermale.ASF
:FULLY-SPECIFIED
:DEGREES
712
root -8.36706 17.1456 1.33706 707.417 -49.676 370.731
lowerback -2.59284 10.029 -7.65322
upperback 3.54331 13.6284 4.72355
thorax 2.23377 6.62012 9.42263
lowerneck -4.37916 17.7621 4.19078
upperneck 27.9831 28.3466 -11.2536
head 12.364 12.2411 -1.01554
rclavicle -2.17868e-013 -3.49861e-014
rhumerus -67.2418 23.3246 -103.245
rradius 95.9453
rwrist 5.72896
rhand -40.9494 -0.717955
rfingers 7.12502
rthumb -13.8829 -30.2346
lclavicle -2.17868e-013 -3.49861e-014
lhumerus -39.6055 1.63232 105.714
lradius 110.908
lwrist 16.9817
lhand -37.0731 56.4452
lfingers 7.12502
lthumb -10.1451 -273.819
rfemur -9.30903 -11.764 4.85734
rtibia 69.4176
rfoot 12.7806 2.47256
rtoes 36.4899
lfemur -8.31786 6.17764 -40.0301
ltibia 24.1623
lfoot -22.3024 -0.107229
ltoes 10.4877
713
root -8.46482 17.1315 1.34241 708.217 -43.9259 369.614
lowerback -1.77882 9.69608 -7.57462
upperback 3.33101 13.1297 4.42423
thorax 1.75071 6.40558 8.90825
lowerneck -4.10891 17.6378 4.32298
upperneck 28.2247 28.0896 -10.7509
head 12.3077 12.2143 -0.93204
rclavicle 4.96962e-016 -1.59028e-015
rhumerus -67.535 23.0531 -102.829
rradius 95.9003
rwrist 5.41503
rhand -40.1122 -0.352124
rfingers 7.12502
rthumb -13.0759 -29.9222
lclavicle 4.96962e-016 -1.59028e-015
lhumerus -39.5599 1.5466 106.685
lradius 109.634
lwrist 17.1273
lhand -37.4111 55.5934
lfingers 7.12502
lthumb -10.4713 -274.687
rfemur -9.73801 -10.3062 3.64711
rtibia 69.5942
rfoot 11.4952 1.82123
rtoes 35.5648
lfemur -7.28258 2.79977 -40.5736
ltibia 25.3702
lfoot -23.218 -1.82412
ltoes 9.18171
714
root -8.57015 17.1155 1.33782 708.662 -38.5783 368.996
lowerback -0.922256 9.41491 -7.78039
upperback 3.05693 12.7044 4.0731
thorax 1.1118 6.23125 8.48018
lowerneck -3.72476 17.5843 4.50743
upperneck 28.3592 27.9248 -10.3067
head 12.2158 12.24 -0.872342
rclavicle -3.70733e-014 4.29375e-014
rhumerus -67.8725 22.9911 -102.471
rradius 95.9504
rwrist 5.71271
rhand -38.822 0.178678
rfingers 7.12502
rthumb -11.832 -29.4671
lclavicle -3.70733e-014 4.29375e-014
lhumerus -39.9634 1.40778 107.49
lradius 108.514
lwrist 17.3233
lhand -37.4799 54.9001
lfingers 7.12502
lthumb -10.5376 -275.384
rfemur -9.87097 -8.20058 2.26881
rtibia 69.1923
rfoot 9.95395 2.14542
rtoes 30.984
lfemur -6.35114 -0.466096 -41.2715
ltibia 26.5561
lfoot -24.0962 -3.244
ltoes 7.59857
715
root -8.67867 17.1035 1.32304 709.114 -33.1343 368.427
lowerback -0.181274 9.0938 -7.9625
upperback 2.8556 12.2263 3.6784
thorax 0.635775 6.01739 8.04325
lowerneck -3.52722 17.4599 4.73999
upperneck 28.4853 27.6664 -9.91311
head 12.1645 12.2087 -0.82901
rclavicle 8.63719e-014 1.27222e-014
rhumerus -68.074 23.0993 -102.271
rradius 96.3085
rwrist 5.38316
rhand -38.0904 0.651216
rfingers 7.12502
rthumb -11.1265 -29.0338
lclavicle 8.63719e-014 1.27222e-014
lhumerus -40.4659 0.93007 108.241
lradius 107.479
lwrist 17.61
lhand -37.4346 54.0235
lfingers 7.12502
lthumb -10.4939 -276.258
rfemur -9.57527 -5.78015 0.976768
rtibia 68.1929
rfoot 8.80613 2.39786
rtoes 29.3787
lfemur -5.59388 -3.80564 -41.9154
ltibia 27.9794
lfoot -24.9621 -4.39063
ltoes 5.11734
716
root -8.801 17.0939 1.29737 709.531 -27.9962 367.791
lowerback 0.758976 8.97477 -7.99122
upperback 2.53322 11.9909 3.24185
thorax -0.0883089 5.94099 7.42573
lowerneck -3.35669 17.1796 5.07276
upperneck 28.7166 27.1318 -9.34397
head 12.1178 12.0727 -0.779086
rclavicle -5.30755e-014 -3.73715e-014
rhumerus -68.3707 22.7366 -102.293
rradius 96.6668
rwrist 4.70688
rhand -37.999 1.26317
rfingers 7.12502
rthumb -11.0383 -28.4266
lclavicle -5.30755e-014 -3.73715e-014
lhumerus -41.4621 -0.14354 108.897
lradius 106.59
lwrist 18.125
lhand -37.3138 53.3967
lfingers 7.12502
lthumb -10.3774 -276.879
rfemur -8.93144 -2.92191 -0.0621211
rtibia 66.6971
rfoot 7.57056 3.27923
rtoes 21.626
lfemur -4.91505 -6.49625 -42.1726
ltibia 29.4345
lfoot -26.046 -5.31685
ltoes 0.566118
717
root -8.9266 17.0799 1.27493 710.44 -22.8972 366.779
lowerback 1.45712 8.85229 -7.4258
upperback 1.99843 11.7616 2.7388
thorax -0.775444 5.87014 6.46106
lowerneck -3.17591 16.7886 5.42801
upperneck 28.9326 26.3992 -8.6898
head 12.0347 11.8606 -0.736882
rclavicle -2.36057e-014 1.03368e-014
rhumerus -68.6356 22.073 -102.369
rradius 96.9236
rwrist 3.9505
rhand -37.8353 2.32823
rfingers 7.12502
rthumb -10.8804 -27.3699
lclavicle -2.36057e-014 1.03368e-014
lhumerus -42.8536 -1.86055 109.407
lradius 105.756
lwrist 18.9405
lhand -37.4189 52.7821
lfingers 7.12502
lthumb -10.4787 -277.499
rfemur -8.29857 0.167087 -0.566167
rtibia 64.734
rfoot 6.09984 3.69148
rtoes 15.7605
lfemur -4.65169 -8.86995 -41.7853
ltibia 30.7789
lfoot -27.3024 -6.22871
ltoes -5.26659
718
root -9.03488 17.0713 1.24865 711.286 -17.23 365.827
lowerback 2.38878 8.5411 -6.52254
upperback 1.39295 11.2738 2.09201
thorax -1.53993 5.66155 5.16631
lowerneck -3.29863 16.3423 5.76416
upperneck 29.4479 25.5879 -7.86537
head 12.0975 11.596 -0.604414
rclavicle -1.02871e-014 -2.22639e-014
rhumerus -68.7947 21.2585 -102.416
rradius 97.2997
rwrist 3.21361
rhand -37.4877 3.60077
rfingers 7.12502
rthumb -10.5451 -26.1147
lclavicle -1.02871e-014 -2.22639e-014
lhumerus -44.4083 -3.82336 109.751
lradius 104.872
lwrist 19.5105
lhand -37.0789 51.9646
lfingers 7.12502
lthumb -10.1507 -278.3
rfemur -7.10155 2.39283 -1.25394
rtibia 62.3584
rfoot 3.91063 4.41602
rtoes -0.715065
lfemur -4.50897 -11.2286 -41.3579
ltibia 32.1694
lfoot -28.5877 -7.71393
ltoes -10.0221
719
root -9.13459 17.0689 1.21644 711.982 -11.0563 364.693
lowerback 3.51686 8.04834 -5.18763
upperback 0.792798 10.5645 1.43389
thorax -2.32634 5.32426 3.64381
lowerneck -3.66071 15.8533 6.16509
upperneck 30.216 24.7059 -6.93291
head 12.3034 11.2975 -0.41716
rclavicle -1.69464e-014 -1.43125e-014
rhumerus -68.8626 20.3329 -102.435
rradius 97.7313
rwrist 2.46692
rhand -36.7396 5.07786
rfingers 7.12502
rthumb -9.82341 -24.673
lclavicle -1.69464e-014 -1.43125e-014
lhumerus -45.9957 -5.8105 109.864
lradius 103.834
lwrist 19.2948
lhand -35.8785 51.5792
lfingers 7.12502
lthumb -8.9926 -278.632
rfemur -5.09307 4.15438 -1.54874
rtibia 59.3732
rfoot 2.74286 7.30429
rtoes 4.57453
lfemur -4.29912 -13.6992 -40.6457
ltibia 33.5181
lfoot -29.7417 -9.68281
ltoes -13.688
720
root -9.25227 17.0645 1.1857 712.707 -5.05538 363.734
lowerback 4.22374 7.4124 -3.97826
upperback 0.194331 9.70766 0.717486
thorax -2.92334 4.89496 2.21806
lowerneck -3.71594 15.3698 6.48448
upperneck 30.4946 23.7909 -6.16304
head 12.269 11.0034 -0.326704
rclavicle -4.39438e-014 4.96962e-015
rhumerus -68.9316 19.6748 -102.74
rradius 98.2203
rwrist 2.03127
rhand -35.916 6.76245
rfingers 7.12502
rthumb -9.02871 -23.0243
lclavicle -4.39438e-014 4.96962e-015
lhumerus -47.7387 -7.5394 109.798
lradius 103.027
lwrist 19.3675
lhand -35.2626 51.1475
lfingers 7.12502
lthumb -8.39818 -279.039
rfemur -2.88514 5.93467 -1.52819
rtibia 55.9878
rfoot 1.903 9.11622
rtoes -1.72525
lfemur -4.36886 -16.0715 -39.8399
ltibia 34.7178
lfoot -30.5266 -12.2674
ltoes -14.7033
721
root -9.38878 17.0584 1.1539 713.543 0.861339 362.837
lowerback 4.43729 6.66841 -2.98509
upperback -0.355994 8.7338 0.0996033
thorax -3.29447 4.39854 1.08848
lowerneck -3.83095 14.8946 6.50755
upperneck 30.906 22.8778 -5.20449
head 12.2405 10.6967 -0.122904
rclavicle 1.04145e-013 -7.82715e-015
rhumerus -68.9501 19.3253 -103.11
rradius 98.7511
rwrist 1.64981
rhand -35.1715 8.1217
rfingers 7.12502
rthumb -8.31028 -21.6948
lclavicle 1.04145e-013 -7.82715e-015
lhumerus -49.5426 -9.02316 109.759
lradius 102.441
lwrist 19.7913
lhand -35.5066 50.6458
lfingers 7.12502
lthumb -8.63367 -279.551
rfemur -0.539852 7.92173 -0.961
rtibia 52.2075
rfoot 2.12267 10.7056
rtoes -2.53873
lfemur -4.89532 -18.7405 -38.8688
ltibia 36.0423
lfoot -30.7872 -15.5619
ltoes -12.0249
